<svg xmlns="http://www.w3.org/2000/svg" viewBox="0 0 512 512"><defs><linearGradient id="bg" x1="0" y1="0" x2="1" y2="1"><stop offset="0" stop-color="#22345c"/><stop offset="1" stop-color="#090e1b"/></linearGradient><linearGradient id="gold" x1="0" y1="0" x2="1" y2="1"><stop offset="0" stop-color="#fbe3a3"/><stop offset=".55" stop-color="#e6b75a"/><stop offset="1" stop-color="#b9842c"/></linearGradient><radialGradient id="glow" cx=".5" cy=".55" r=".5"><stop offset="0" stop-color="#e6b75a" stop-opacity=".35"/><stop offset="1" stop-color="#e6b75a" stop-opacity="0"/></radialGradient></defs>
<rect width="512" height="512" fill="url(#bg)"/><circle cx="256" cy="290" r="210" fill="url(#glow)"/>
<path d="M256 112c8 0 16 3 22 8l118 100c9 8 14 19 14 31v122c0 22-18 40-40 40h-62v-86a52 52 0 0 0-104 0v86h-62c-22 0-40-18-40-40V251c0-12 5-23 14-31l118-100c6-5 14-8 22-8z" fill="url(#gold)"/>
</svg>
